# AST/ASF file generated using VICON BodyLanguage
# -----------------------------------------------
:version 1.10
:name VICON
:units
  mass 1.0
  length 0.45
  angle deg
:documentation
   .ast/.asf automatically generated from VICON data using
   VICON BodyBuilder and BodyLanguage model FoxedUp or BRILLIANT.MOD
:root
   order TX TY TZ RX RY RZ
   axis XYZ
   position 0 0 0  
   orientation 0 0 0 
:bonedata
  begin
     id 1 
     name lhipjoint
     direction 0.611823 -0.767273 0.19226 
     length 2.47422 
     axis 0 0 0  XYZ
  end
  begin
     id 2 
     name lfemur
     direction 0.34202 -0.939693 0  
     length 7.40835  
     axis 0 0 20  XYZ
    dof rx ry rz
    limits (-160.0 20.0)
           (-70.0 70.0)
           (-60.0 70.0)
  end
  begin
     id 3 
     name ltibia
     direction 0.34202 -0.939693 0   
     length 8.03679   
     axis 0 0 20   XYZ
    dof rx
    limits (-10.0 170.0)
  end
  begin
     id 4 
     name lfoot
     direction 0.0883598 -0.242766 0.966052   
     length 2.06694   
     axis -90 7.62852e-016 20   XYZ
    dof rx rz
    limits (-45.0 90.0)
           (-70.0 20.0)
  end
  begin
     id 5 
     name ltoes
     direction 1.53617e-011 -4.21699e-011 1   
     length 1.03711   
     axis -90 7.62852e-016 20   XYZ
    dof rx
    limits (-90.0 20.0)
  end
  begin
     id 6 
     name rhipjoint
     direction -0.590066 -0.783143 0.196236   
     length 2.42408  
     axis 0 0 0  XYZ 
  end
  begin
     id 7 
     name rfemur
     direction -0.34202 -0.939693 0   
     length 7.88987   
     axis 0 0 -20   XYZ
    dof rx ry rz
    limits (-160.0 20.0)
           (-70.0 70.0)
           (-70.0 60.0)
  end
  begin
     id 8 
     name rtibia
     direction -0.34202 -0.939693 0   
     length 7.87584   
     axis 0 0 -20   XYZ
    dof rx
    limits (-10.0 170.0)
 end
 begin
     id 9 
     name rfoot
     direction -0.130476 -0.358481 0.924374   
     length 2.21745  
     axis -90 -7.62852e-016 -20   XYZ
    dof rx rz
    limits (-45.0 90.0)
           (-20.0 70.0)
  end
  begin
     id 10 
     name rtoes
     direction 8.20695e-005 8.89091e-005 1   
     length 1.09536   
     axis -90 -7.62852e-016 -20   XYZ
    dof rx
    limits (-90.0 20.0)
  end
  begin
     id 11 
     name lowerback
     direction 0.00981224 0.999875 -0.0124197   
     length 1.94808   
     axis 0 0 0   XYZ
    dof rx ry rz
    limits (-20.0 45.0)
           (-30.0 30.0)
           (-30.0 30.0)
  end
  begin
     id 12 
     name upperback
     direction 0.038911 0.999194 0.00981686   
     length 1.94415   
     axis 0 0 0   XYZ
    dof rx ry rz
    limits (-20.0 45.0)
           (-30.0 30.0)
           (-30.0 30.0)
  end
  begin
     id 13 
     name thorax
     direction 0.0330692 0.999334 0.0154389   
     length 1.94117   
     axis 0 0 0   XYZ
    dof rx ry rz
    limits (-20.0 45.0)
           (-30.0 30.0)
           (-30.0 30.0)
  end
  begin
     id 14 
     name lowerneck
     direction -0.0374305 0.99415 0.10132   
     length 1.87291   
     axis 0 0 0   XYZ
    dof rx ry rz
    limits (-20.0 45.0)
           (-30.0 30.0)
           (-30.0 30.0)
  end
  begin
     id 15 
     name upperneck
     direction 0.0120692 0.985979 -0.166431   
     length 1.89248   
     axis 0 0 0   XYZ
    dof rx ry rz
    limits (-20.0 45.0)
           (-30.0 30.0)
           (-30.0 30.0)
  end
  begin
     id 16
     name head
     direction 0.00629908 0.997708 -0.06737  
     length 1.90559  
     axis 0 0 0   XYZ
    dof rx ry rz
    limits (-20.0 45.0)
           (-30.0 30.0)
           (-30.0 30.0)
  end
  begin
     id 17 
     name lclavicle
     direction 0.961536 0.27308 -0.0295863  
     length 3.52757  
     axis 0 0 0   XYZ
    dof ry rz
    limits (-20.0 10.0)
           (0.0 20.0)
  end
  begin
     id 18 
     name lhumerus
     direction 1 -4.48969e-011 2.61153e-029   
     length 5.14845   
     axis 180 -30 -90   XYZ
    dof rx ry rz
    limits (-60.0 90.0)
           (-90.0 90.0)
           (-90.0 90.0)
  end
  begin
     id 19
     name lradius
     direction 1 -4.4896e-011 -3.37549e-027   
     length 3.43674   
     axis 180 -30 -90   XYZ
    dof rx
    limits (-10.0 170.0)
  end
  begin
     id 20
     name lwrist
     direction 1 -4.48969e-011 2.56952e-028   
     length 1.71837   
     axis -5.12785e-016 90 90   XYZ
    dof ry
    limits (-180.0 0.0)
 end
  begin
     id 21 
     name lhand
     direction 1 -4.49094e-011 5.13905e-028   
     length 0.588709   
     axis -3.27915e-016 90 90   XYZ
    dof rx rz
    limits (-90.0 90.0)
           (-45.0 45.0)
  end
  begin
     id 22 
     name lfingers
     direction 1 -4.48821e-011 1.02781e-027   
     length 0.474633   
     axis -6.5583e-016 90 90   XYZ
    dof rx
    limits (0.0 90.0)
  end
  begin
     id 23
     name lthumb
     direction 0.707107 -6.34922e-011 0.707107   
     length 0.68148   
     axis -90 45 2.85299e-015   XYZ
    dof rx rz
    limits (-45.0 45.0)
           (-45.0 45.0)
  end
  begin
     id 24 
     name rclavicle
     direction -0.940964 0.333844 -0.0559866   
     length 3.55948  
     axis 0 0 0   XYZ 
    dof ry rz
    limits (-10.0 20.0)
           (-20.0 0.0)
  end
  begin
     id 25 
     name rhumerus
     direction -1 -4.48973e-011 3.15259e-027  
     length 5.42185   
     axis 180 30 90   XYZ
    dof rx ry rz
    limits (-90.0 60.0)
           (-90.0 90.0)
           (-90.0 90.0)
  end
  begin
     id 26 
     name rradius
     direction -1 -4.48954e-011 -2.56271e-027   
     length 3.51317   
     axis 180 30 90   XYZ
    dof rx
    limits (-10.0 170.0)
  end
  begin
     id 27 
     name rwrist
     direction -1 -4.48943e-011 2.56952e-028   
     length 1.75658   
     axis -5.12785e-016 -90 -90   XYZ
    dof ry
    limits (-180.0 0.0)
  end
  begin
     id 28
     name rhand
     direction -1 -4.4912e-011 5.13905e-028   
     length 0.663187   
     axis -3.27915e-016 -90 -90   XYZ
    dof rx rz
    limits (-90.0 90.0)
           (-45.0 45.0)
  end
  begin
     id 29
     name rfingers
     direction -1 -4.48914e-011 1.02781e-027   
     length 0.534679   
     axis -6.5583e-016 -90 -90   XYZ
    dof rx
    limits (0.0 90.0)
  end
  begin
     id 30
     name rthumb
     direction -0.707107 -6.35033e-011 0.707107   
     length 0.767695   
     axis -90 -45 -2.85299e-015   XYZ
    dof rx rz
    limits (-45.0 45.0)
           (-45.0 45.0)
  end
:hierarchy
  begin
    root lhipjoint rhipjoint lowerback
    lhipjoint lfemur
    lfemur ltibia
    ltibia lfoot
    lfoot ltoes
    rhipjoint rfemur
    rfemur rtibia
    rtibia rfoot
    rfoot rtoes
    lowerback upperback
    upperback thorax
    thorax lowerneck lclavicle rclavicle
    lowerneck upperneck
    upperneck head
    lclavicle lhumerus
    lhumerus lradius
    lradius lwrist
    lwrist lhand lthumb
    lhand lfingers
    rclavicle rhumerus
    rhumerus rradius
    rradius rwrist
    rwrist rhand rthumb
    rhand rfingers
  end

#!OML:ASF F:\VICON\USERDATA\INSTALL\Justin_a\Justin_a.ASF
:FULLY-SPECIFIED
:DEGREES
4360
root -10.5227 17.5193 -10.4467 -520.316 -118.314 532.148
lowerback 4.441 6.0886 2.68378
upperback 2.96205 8.13688 1.60796
thorax 0.717365 4.06608 -0.126749
lowerneck -7.3226 7.89018 -0.960877
upperneck 38.7969 14.8361 -10.0189
head 15.8931 4.64396 -1.94053
rclavicle -1.71352e-013 -7.15625e-015
rhumerus -22.2771 6.50842 -83.6119
rradius 42.5275
rwrist -6.10164
rhand -39.3775 17.0913
rfingers 7.12502
rthumb -12.3677 -12.5229
lclavicle -1.71352e-013 -7.15625e-015
lhumerus -43.6464 16.648 81.686
lradius 39.1259
lwrist 3.66731
lhand -19.8598 20.687
lfingers 7.12502
lthumb 6.4752 50.568
rfemur -33.3763 7.87476 22.3654
rtibia 42.4086
rfoot -30.2984 10.6084
rtoes -11.3017
lfemur -34.3787 -8.47731 -14.4715
ltibia 46.9184
lfoot -23.1856 -11.9989
ltoes -10.3048
4361
root -10.4912 17.5191 -10.4614 -520.026 -117.793 531.825
lowerback 4.52006 6.20541 2.69351
upperback 2.93119 8.2967 1.51194
thorax 0.661061 4.14632 -0.244616
lowerneck -7.28704 8.01735 -0.723899
upperneck 38.778 15.0109 -10.1291
head 15.9256 4.73881 -2.00115
rclavicle -6.67916e-014 -3.18055e-015
rhumerus -21.8272 6.75326 -83.7672
rradius 42.3329
rwrist -6.1876
rhand -39.3959 17.0876
rfingers 7.12502
rthumb -12.3854 -12.5256
lclavicle -6.67916e-014 -3.18055e-015
lhumerus -43.8246 16.4484 81.6469
lradius 38.9821
lwrist 3.77071
lhand -19.2276 20.9503
lfingers 7.12502
lthumb 7.08546 50.8117
rfemur -33.4419 7.8993 22.4109
rtibia 42.24
rfoot -30.7854 10.5449
rtoes -14.4641
lfemur -33.8377 -8.21104 -14.786
ltibia 46.344
lfoot -23.0493 -10.627
ltoes -8.9706
4362
root -10.4603 17.5202 -10.4717 -519.778 -117.339 531.62
lowerback 4.56499 6.27151 2.65412
upperback 2.86576 8.38784 1.4472
thorax 0.574979 4.19107 -0.301758
lowerneck -7.15433 8.19788 -0.480106
upperneck 38.6158 15.2721 -10.3312
head 15.8813 4.87376 -2.08786
rclavicle 1.78906e-015 8.74653e-015
rhumerus -21.436 6.9733 -83.8642
rradius 42.1648
rwrist -6.13314
rhand -39.2505 17.4338
rfingers 7.12502
rthumb -12.2452 -12.1877
lclavicle 1.78906e-015 8.74653e-015
lhumerus -44.0668 16.5602 81.5552
lradius 38.8308
lwrist 3.7435
lhand -18.8031 21.275
lfingers 7.12502
lthumb 7.49521 51.1222
rfemur -33.6035 7.53152 22.4835
rtibia 42.0737
rfoot -31.1866 10.7452
rtoes -16.8988
lfemur -33.3575 -8.30248 -15.0398
ltibia 45.5817
lfoot -22.6607 -8.88065
ltoes -7.56695
4363
root -10.4303 17.5136 -10.4899 -518.939 -116.871 530.827
lowerback 4.49998 6.32149 2.68886
upperback 2.814 8.455 1.50555
thorax 0.555497 4.22396 -0.259624
lowerneck -7.08894 8.37813 -0.392575
upperneck 38.4938 15.5569 -10.4945
head 15.8596 4.99416 -2.12619
rclavicle 1.4233e-013 -1.51076e-014
rhumerus -20.8593 7.33032 -83.9728
rradius 41.8368
rwrist -5.89341
rhand -39.0156 17.5032
rfingers 7.12502
rthumb -12.0187 -12.1317
lclavicle 1.4233e-013 -1.51076e-014
lhumerus -44.2845 16.7283 81.4918
lradius 38.6957
lwrist 3.76431
lhand -19.2523 21.0313
lfingers 7.12502
lthumb 7.06161 50.8935
rfemur -33.8278 7.59438 22.7993
rtibia 41.9288
rfoot -31.6994 10.4072
rtoes -19.3626
lfemur -33.0202 -8.28059 -14.9452
ltibia 44.7677
lfoot -22.2487 -7.11932
ltoes -5.94581
4364
root -10.4035 17.5084 -10.5123 -518.122 -116.381 530.126
lowerback 4.46321 6.36848 2.47903
upperback 2.64786 8.51655 1.61142
thorax 0.359116 4.24943 -0.0524214
lowerneck -7.03779 8.51118 -0.553928
upperneck 38.5387 15.7624 -10.4465
head 15.8697 5.05851 -2.0505
rclavicle -9.14409e-015 2.46493e-014
rhumerus -20.4927 7.83826 -84.1072
rradius 41.6528
rwrist -5.57194
rhand -38.9212 17.0214
rfingers 7.12502
rthumb -11.9277 -12.6188
lclavicle -9.14409e-015 2.46493e-014
lhumerus -44.7349 16.7808 81.4732
lradius 38.636
lwrist 3.89798
lhand -20.2435 20.5507
lfingers 7.12502
lthumb 6.10469 50.4428
rfemur -34.127 7.12507 23.1898
rtibia 41.812
rfoot -32.0634 10.945
rtoes -20.8078
lfemur -32.7767 -7.99301 -14.9512
ltibia 43.9285
lfoot -22.4252 -4.89987
ltoes -7.84985
4365
root -10.3781 17.5042 -10.5352 -517.188 -115.877 529.295
lowerback 4.42136 6.45039 2.366
upperback 2.50645 8.62661 1.66022
thorax 0.214357 4.30161 0.0469559
lowerneck -6.94548 8.67574 -0.489386
upperneck 38.5545 15.9857 -10.4578
head 15.8849 5.15994 -2.03582
rclavicle 3.29983e-014 1.11319e-014
rhumerus -20.1617 8.30535 -84.263
rradius 41.5349
rwrist -5.34746
rhand -38.8591 17.3187
rfingers 7.12502
rthumb -11.8677 -12.325
lclavicle 3.29983e-014 1.11319e-014
lhumerus -45.0394 16.7493 81.4481
lradius 38.5213
lwrist 4.19685
lhand -20.8235 20.3188
lfingers 7.12502
lthumb 5.54477 50.2262
rfemur -34.4721 7.0081 23.5403
rtibia 41.7606
rfoot -32.236 11.1757
rtoes -22.0446
lfemur -32.5554 -7.52441 -14.9575
ltibia 43.1773
lfoot -22.9675 -2.79048
ltoes -11.3657
4366
root -10.3488 17.5019 -10.5559 -516.407 -115.446 528.441
lowerback 4.48554 6.5577 2.42706
upperback 2.51243 8.77226 1.6992
thorax 0.190536 4.37378 0.0412029
lowerneck -6.811 8.81001 -0.466058
upperneck 38.3565 16.1654 -10.526
head 15.7769 5.25015 -2.03995
rclavicle -1.65588e-013 -1.43125e-014
rhumerus -19.8149 8.73893 -84.3061
rradius 41.5934
rwrist -5.40501
rhand -38.6243 17.3891
rfingers 7.12502
rthumb -11.6414 -12.2675
lclavicle -1.65588e-013 -1.43125e-014
lhumerus -45.1146 16.7535 81.4688
lradius 38.3437
lwrist 4.26339
lhand -20.1727 20.7002
lfingers 7.12502
lthumb 6.17307 50.5902
rfemur -34.5985 7.08673 23.846
rtibia 41.7051
rfoot -32.3423 11.0851
rtoes -23.4335
lfemur -32.1103 -7.27803 -14.8836
ltibia 42.4868
lfoot -23.1606 -1.5036
ltoes -12.0984
4367
root -10.3188 17.4903 -10.5762 -516.105 -114.963 528.12
lowerback 4.62148 6.61105 2.08819
upperback 2.47484 8.8368 1.75448
thorax 0.0176822 4.40112 0.252856
lowerneck -6.77043 8.93327 -0.589533
upperneck 38.2871 16.3513 -10.5186
head 15.7357 5.31633 -1.98686
rclavicle 3.10104e-014 -2.46493e-014
rhumerus -19.4514 9.33841 -84.3745
rradius 41.5474
rwrist -5.41272
rhand -38.705 17.5255
rfingers 7.12502
rthumb -11.7192 -12.1267
lclavicle 3.10104e-014 -2.46493e-014
lhumerus -45.2611 16.8438 81.4689
lradius 38.0872
lwrist 4.316
lhand -19.7495 20.8659
lfingers 7.12502
lthumb 6.58167 50.7437
rfemur -34.7646 7.14898 23.8774
rtibia 41.7121
rfoot -32.5593 10.7332
rtoes -25.474
lfemur -31.7048 -6.76516 -15.2719
ltibia 41.8536
lfoot -23.1627 1.09843
ltoes -18.8852
4368
root -10.2895 17.5053 -10.5969 -515.833 -114.628 527.942
lowerback 4.63747 6.59406 1.73963
upperback 2.3872 8.80619 1.76635
thorax -0.136136 4.38264 0.441133
lowerneck -6.73234 9.10592 -0.514749
upperneck 38.3275 16.5915 -10.5286
head 15.7796 5.42216 -1.96865
rclavicle 3.35946e-014 -3.10104e-014
rhumerus -19.0909 9.84277 -84.5381
rradius 41.4478
rwrist -5.3619
rhand -38.8385 17.576
rfingers 7.12502
rthumb -11.8479 -12.0688
lclavicle 3.35946e-014 -3.10104e-014
lhumerus -45.3759 16.9877 81.3589
lradius 37.7655
lwrist 4.34536
lhand -20.0681 20.6131
lfingers 7.12502
lthumb 6.2741 50.5001
rfemur -34.9959 7.20679 23.8554
rtibia 41.6816
rfoot -32.6392 10.6255
rtoes -26.7206
lfemur -31.5424 -7.06944 -15.2138
ltibia 41.2699
lfoot -22.7663 0.819057
ltoes -12.4459
4369
root -10.2586 17.5061 -10.6212 -515.697 -114.386 527.87
lowerback 4.67833 6.5661 1.54669
upperback 2.33976 8.76483 1.69277
thorax -0.225124 4.36104 0.462346
lowerneck -6.654 9.2275 -0.301332
upperneck 38.2163 16.7458 -10.6462
head 15.7556 5.51148 -2.02995
rclavicle 3.97569e-016 -9.54166e-015
rhumerus -18.6826 10.0846 -84.7816
rradius 41.3118
rwrist -5.11056
rhand -38.8303 17.5457
rfingers 7.12502
rthumb -11.8401 -12.0996
lclavicle 3.97569e-016 -9.54166e-015
lhumerus -45.3846 16.7905 81.3792
lradius 37.4922
lwrist 4.4234
lhand -20.214 20.635
lfingers 7.12502
lthumb 6.13324 50.5262
rfemur -35.2161 7.2596 23.8319
rtibia 41.667
rfoot -32.6838 10.5863
rtoes -27.0915
lfemur -31.4052 -7.12681 -15.2924
ltibia 40.7557
lfoot -22.6392 1.73096
ltoes -13.5981
4370
root -10.2272 17.5008 -10.646 -515.072 -114.295 527.245
lowerback 4.74947 6.57045 1.52056
upperback 2.3141 8.77196 1.73766
thorax -0.301772 4.36346 0.509836
lowerneck -6.7743 9.28753 -0.177916
upperneck 38.219 16.858 -10.7461
head 15.8247 5.55563 -2.06837
rclavicle 1.50679e-013 -2.46493e-014
rhumerus -18.3186 10.4694 -84.9117
rradius 41.3731
rwrist -5.09556
rhand -39.0774 17.1926
rfingers 7.12502
rthumb -12.0783 -12.4388
lclavicle 1.50679e-013 -2.46493e-014
lhumerus -45.3608 16.4741 81.4755
lradius 37.309
lwrist 4.43382
lhand -19.7244 20.9905
lfingers 7.12502
lthumb 6.60584 50.8675
rfemur -35.4004 7.16376 24.1621
rtibia 41.623
rfoot -32.7731 10.0879
rtoes -28.4816
lfemur -31.3262 -7.22514 -15.0165
ltibia 40.3401
lfoot -22.584 2.90177
ltoes -17.4616
4371
root -10.1941 17.508 -10.6758 -514.65 -114.301 526.845
lowerback 4.8612 6.52916 1.40734
upperback 2.28493 8.71598 1.7631
thorax -0.414413 4.33393 0.581618
lowerneck -6.68327 9.4004 -0.0400082
upperneck 38.0133 17.0054 -10.8689
head 15.7415 5.64015 -2.11739
rclavicle -2.94201e-014 -1.11319e-014
rhumerus -17.9543 10.7897 -85.1007
rradius 41.482
rwrist -5.02403
rhand -39.3161 17.0001
rfingers 7.12502
rthumb -12.3085 -12.6176
lclavicle -2.94201e-014 -1.11319e-014
lhumerus -45.2407 16.3355 81.3968
lradius 37.0232
lwrist 4.05192
lhand -19.6144 20.6976
lfingers 7.12502
lthumb 6.71206 50.5712
rfemur -35.5634 6.96947 24.4761
rtibia 41.5742
rfoot -33.0337 9.1197
rtoes -30.8353
lfemur -31.3898 -7.04631 -14.8017
ltibia 40.0686
lfoot -22.6832 3.08483
ltoes -18.3482
4372
root -10.1571 17.5038 -10.7076 -514.013 -114.515 526.193
lowerback 4.96921 6.46377 1.60372
upperback 2.32028 8.63701 1.75802
thorax -0.407849 4.2948 0.465647
lowerneck -6.82784 9.42374 0.0357421
upperneck 37.9144 17.0184 -10.8537
head 15.7294 5.65741 -2.10975
rclavicle -1.64991e-014 -5.96354e-015
rhumerus -17.4748 10.7156 -85.2665
rradius 41.5807
rwrist -4.62374
rhand -39.2645 16.9247
rfingers 7.12502
rthumb -12.2587 -12.696
lclavicle -1.64991e-014 -5.96354e-015
lhumerus -44.878 16.0927 81.3821
lradius 36.7065
lwrist 3.70375
lhand -19.7968 20.3617
lfingers 7.12502
lthumb 6.53603 50.2409
rfemur -35.7176 6.74455 24.9659
rtibia 41.5696
rfoot -33.2673 8.16551
rtoes -32.2425
lfemur -31.4406 -7.12941 -14.213
ltibia 39.8792
lfoot -22.8996 2.73803
ltoes -16.6372
4373
root -10.1241 17.5118 -10.7362 -513.54 -114.642 525.736
lowerback 4.98417 6.43707 1.7322
upperback 2.34377 8.60568 1.7411
thorax -0.370497 4.27988 0.382052
lowerneck -6.92413 9.40209 0.124491
upperneck 37.8981 16.9731 -10.8544
head 15.7475 5.64611 -2.12626
rclavicle 1.98785e-015 -2.98177e-014
rhumerus -17.1389 10.69 -85.4048
rradius 41.7484
rwrist -4.47295
rhand -39.2703 16.8016
rfingers 7.12502
rthumb -12.2642 -12.8188
lclavicle 1.98785e-015 -2.98177e-014
lhumerus -44.584 15.6014 81.5312
lradius 36.4201
lwrist 3.49548
lhand -20.5467 20.0009
lfingers 7.12502
lthumb 5.81205 49.9012
rfemur -35.9036 6.34356 25.4336
rtibia 41.6423
rfoot -33.672 6.959
rtoes -33.4583
lfemur -31.5981 -7.10732 -13.8886
ltibia 39.7023
lfoot -22.7644 2.78986
ltoes -17.1975
4374
root -10.0947 17.5207 -10.7682 -513.53 -114.693 525.745
lowerback 5.04609 6.40617 1.55842
upperback 2.30875 8.56046 1.73558
thorax -0.465578 4.25596 0.460586
lowerneck -6.82047 9.4346 0.102069
upperneck 37.8628 16.9839 -10.7886
head 15.6925 5.6625 -2.09759
rclavicle 9.34288e-014 1.78906e-014
rhumerus -16.9706 10.6606 -85.5277
rradius 41.8698
rwrist -4.39045
rhand -39.0368 16.7577
rfingers 7.12502
rthumb -12.0391 -12.876
lclavicle 9.34288e-014 1.78906e-014
lhumerus -44.4551 14.8785 81.7806
lradius 36.2374
lwrist 3.54538
lhand -21.1301 20.0228
lfingers 7.12502
lthumb 5.24869 49.9378
rfemur -36.0617 6.0134 25.6696
rtibia 41.8407
rfoot -33.9902 5.46789
rtoes -33.647
lfemur -31.694 -6.96147 -13.8185
ltibia 39.5335
lfoot -22.6451 2.57047
ltoes -17.6086
